<?xml version="1.0"?>
<svg width="32" height="32" xmlns="http://www.w3.org/2000/svg" xmlns:svg="http://www.w3.org/2000/svg">
 <g class="layer">
  <title>Layer 1</title>
  <path d="m16,0c-8.83,0 -16,7.17 -16,16c0,8.83 7.17,16 16,16c8.83,0 16,-7.17 16,-16c0,-8.83 -7.17,-16 -16,-16zm-7.89,26.05c0.69,-1.44 4.88,-2.85 7.89,-2.85c3.01,0 7.22,1.41 7.89,2.85c-2.18,1.73 -4.91,2.75 -7.89,2.75c-2.98,0 -5.71,-1.02 -7.89,-2.75zm18.07,-2.32c-2.29,-2.79 -7.84,-3.73 -10.18,-3.73c-2.34,0 -7.89,0.94 -10.18,3.73c-1.63,-2.15 -2.62,-4.82 -2.62,-7.73c0,-7.06 5.74,-12.8 12.8,-12.8c7.06,0 12.8,5.74 12.8,12.8c0,2.91 -0.99,5.58 -2.62,7.73l0,0zm-10.18,-17.33c-3.1,0 -5.6,2.5 -5.6,5.6c0,3.1 2.5,5.6 5.6,5.6c3.1,0 5.6,-2.5 5.6,-5.6c0,-3.1 -2.5,-5.6 -5.6,-5.6zm0,8c-1.33,0 -2.4,-1.07 -2.4,-2.4c0,-1.33 1.07,-2.4 2.4,-2.4c1.33,0 2.4,1.07 2.4,2.4c0,1.33 -1.07,2.4 -2.4,2.4z" fill="#00ff08" id="svg_1"/>
 </g>
</svg>